<?xml version="1.0" encoding="utf-8"?>
<!-- Generator: Adobe Illustrator 22.1.0, SVG Export Plug-In . SVG Version: 6.00 Build 0)  -->
<svg version="1.1" id="Layer_1" xmlns="http://www.w3.org/2000/svg" xmlns:xlink="http://www.w3.org/1999/xlink" x="0px" y="0px"
	 viewBox="0 0 239.3 62" style="enable-background:new 0 0 239.3 62;" xml:space="preserve">
<style type="text/css">
	.st0{fill:#FFF100;}
	.st1{fill:#231F20;}
</style>
<g>
	<rect y="46.7" class="st0" width="239" height="14.9"/>
	<g>
		<path class="st1" d="M129.9,0.1h9.8c1.6,0,2.9,0.2,4,0.7c2,0.9,3,2.6,3,5.1c0,1.3-0.3,2.3-0.8,3.2s-1.3,1.5-2.2,2
			c0.8,0.3,1.5,0.8,1.9,1.3s0.7,1.5,0.7,2.7l0.1,2.9c0,0.8,0.1,1.4,0.2,1.8c0.2,0.7,0.5,1.1,0.9,1.3v0.5h-3.6
			c-0.1-0.2-0.2-0.4-0.2-0.7s-0.1-0.9-0.1-1.7l-0.2-3.6c-0.1-1.4-0.6-2.3-1.5-2.8c-0.5-0.3-1.4-0.4-2.5-0.4h-6.4v9.2h-2.9V0.1z
			 M139.4,9.9c1.3,0,2.4-0.3,3.2-0.8c0.8-0.5,1.2-1.5,1.2-3c0-1.5-0.5-2.6-1.6-3.1c-0.6-0.3-1.4-0.4-2.3-0.4h-6.9v7.4H139.4z"/>
		<path class="st1" d="M159.3,12.1c0.6-0.1,1-0.3,1.2-0.8c0.1-0.2,0.2-0.6,0.2-1c0-0.9-0.3-1.6-1-2s-1.6-0.6-2.7-0.6
			c-1.4,0-2.3,0.4-2.9,1.1c-0.3,0.4-0.5,1-0.6,1.8H151c0-1.9,0.7-3.3,1.9-4c1.2-0.8,2.6-1.1,4.2-1.1c1.8,0,3.3,0.4,4.5,1.1
			c1.1,0.7,1.7,1.8,1.7,3.3v9c0,0.3,0.1,0.5,0.2,0.7s0.3,0.2,0.7,0.2c0.1,0,0.2,0,0.4,0s0.3,0,0.5-0.1v1.9c-0.4,0.1-0.7,0.2-0.9,0.2
			s-0.5,0-0.9,0c-0.9,0-1.6-0.3-2-1c-0.2-0.3-0.4-0.8-0.5-1.4c-0.5,0.7-1.3,1.3-2.3,1.8c-1,0.5-2.1,0.8-3.3,0.8
			c-1.5,0-2.6-0.4-3.6-1.3c-0.9-0.9-1.4-2-1.4-3.3c0-1.5,0.5-2.6,1.4-3.4c0.9-0.8,2.1-1.3,3.6-1.5L159.3,12.1z M153.7,19.2
			c0.6,0.4,1.2,0.7,2,0.7c0.9,0,1.8-0.2,2.7-0.6c1.5-0.7,2.2-1.9,2.2-3.5v-2.1c-0.3,0.2-0.7,0.4-1.2,0.5s-1,0.2-1.5,0.3l-1.6,0.2
			c-1,0.1-1.7,0.3-2.2,0.6c-0.8,0.5-1.2,1.2-1.2,2.2C152.9,18.2,153.2,18.8,153.7,19.2z"/>
		<path class="st1" d="M167.4,6h2.6v2.1c0.5-0.7,1.1-1.3,1.7-1.7c0.9-0.6,1.9-0.9,3.1-0.9c1.8,0,3.3,0.7,4.5,2
			c1.2,1.4,1.9,3.3,1.9,5.8c0,3.4-0.9,5.9-2.7,7.3c-1.1,0.9-2.5,1.4-4,1.4c-1.2,0-2.2-0.3-3-0.8c-0.5-0.3-1-0.8-1.6-1.5v8h-2.6V6z
			 M177.3,18.3c0.8-1,1.2-2.6,1.2-4.6c0-1.2-0.2-2.3-0.5-3.2c-0.7-1.7-1.9-2.6-3.8-2.6c-1.8,0-3.1,0.9-3.8,2.7
			c-0.4,1-0.5,2.2-0.5,3.7c0,1.2,0.2,2.2,0.5,3.1c0.7,1.6,1.9,2.4,3.8,2.4C175.4,19.8,176.5,19.3,177.3,18.3z"/>
		<path class="st1" d="M184.3,0h2.6v8c0.6-0.8,1.2-1.3,1.7-1.7c0.8-0.6,1.9-0.8,3.2-0.8c2.3,0,3.8,0.8,4.6,2.4
			c0.4,0.9,0.7,2.1,0.7,3.6v10.1h-2.7v-9.9c0-1.2-0.1-2-0.4-2.5c-0.5-0.9-1.4-1.3-2.7-1.3c-1.1,0-2.1,0.4-3,1.1s-1.3,2.2-1.3,4.3
			v8.3h-2.6V0z"/>
		<path class="st1" d="M209.4,12.1c0.6-0.1,1-0.3,1.2-0.8c0.1-0.2,0.2-0.6,0.2-1c0-0.9-0.3-1.6-1-2s-1.6-0.6-2.7-0.6
			c-1.4,0-2.3,0.4-2.9,1.1c-0.3,0.4-0.5,1-0.6,1.8H201c0-1.9,0.7-3.3,1.9-4c1.2-0.8,2.6-1.1,4.2-1.1c1.8,0,3.3,0.4,4.5,1.1
			c1.1,0.7,1.7,1.8,1.7,3.3v9c0,0.3,0.1,0.5,0.2,0.7s0.3,0.2,0.7,0.2c0.1,0,0.2,0,0.4,0s0.3,0,0.5-0.1v1.9c-0.4,0.1-0.7,0.2-0.9,0.2
			s-0.5,0-0.9,0c-0.9,0-1.6-0.3-2-1c-0.2-0.3-0.4-0.8-0.5-1.4c-0.5,0.7-1.3,1.3-2.3,1.8c-1,0.5-2.1,0.8-3.3,0.8
			c-1.5,0-2.6-0.4-3.6-1.3c-0.9-0.9-1.4-2-1.4-3.3c0-1.5,0.5-2.6,1.4-3.4c0.9-0.8,2.1-1.3,3.6-1.5L209.4,12.1z M203.8,19.2
			c0.6,0.4,1.2,0.7,2,0.7c0.9,0,1.8-0.2,2.7-0.6c1.5-0.7,2.2-1.9,2.2-3.5v-2.1c-0.3,0.2-0.7,0.4-1.2,0.5s-1,0.2-1.5,0.3l-1.6,0.2
			c-1,0.1-1.7,0.3-2.2,0.6c-0.8,0.5-1.2,1.2-1.2,2.2C203,18.2,203.2,18.8,203.8,19.2z"/>
		<path class="st1" d="M227.3,6.3c1,0.5,1.8,1.2,2.4,2c0.5,0.8,0.9,1.7,1,2.8c0.2,0.7,0.2,1.9,0.2,3.5h-11.4c0,1.6,0.4,2.9,1.1,3.8
			c0.7,1,1.8,1.4,3.2,1.4c1.4,0,2.5-0.5,3.3-1.4c0.5-0.5,0.8-1.1,1-1.8h2.6c-0.1,0.6-0.3,1.2-0.7,1.9s-0.8,1.3-1.3,1.7
			c-0.8,0.8-1.8,1.3-3,1.6c-0.6,0.2-1.3,0.2-2.1,0.2c-1.9,0-3.6-0.7-4.9-2.1c-1.3-1.4-2-3.4-2-6c0-2.5,0.7-4.6,2-6.1
			c1.4-1.6,3.1-2.4,5.3-2.4C225.2,5.6,226.3,5.8,227.3,6.3z M228.3,12.5c-0.1-1.1-0.4-2.1-0.7-2.7c-0.7-1.3-1.9-1.9-3.6-1.9
			c-1.2,0-2.2,0.4-3,1.3c-0.8,0.9-1.2,2-1.3,3.3H228.3z M220.5,0.4h2.7v3h-2.7V0.4z M225.3,0.4h2.7v3h-2.7V0.4z"/>
		<path class="st1" d="M234.4,0.1h2.6v21.5h-2.6V0.1z"/>
		<path class="st1" d="M21.4,33.8c-0.5-2-1.6-3.3-3.3-4.1c-1-0.4-2.1-0.6-3.3-0.6c-2.3,0-4.2,0.9-5.7,2.6c-1.5,1.7-2.2,4.4-2.2,7.9
			c0,3.5,0.8,6,2.4,7.5c1.6,1.5,3.5,2.2,5.5,2.2c2,0,3.7-0.6,5-1.7s2.1-2.7,2.4-4.6h-6.7v-4.8h12v15.4h-4L22.8,50
			c-1.2,1.4-2.2,2.3-3.1,2.9c-1.6,1-3.5,1.5-5.9,1.5c-3.8,0-6.9-1.3-9.4-4c-2.5-2.7-3.8-6.3-3.8-10.9c0-4.7,1.3-8.4,3.8-11.2
			c2.6-2.8,6-4.2,10.2-4.2c3.7,0,6.6,0.9,8.8,2.8c2.2,1.9,3.5,4.2,3.8,6.9H21.4z"/>
		<path class="st1" d="M38.4,53.6h-5.6V24.8h5.6V53.6z"/>
		<path class="st1" d="M49.3,32.3v12.8c0,1.2,0.1,2.1,0.4,2.7c0.5,1.1,1.5,1.6,3,1.6c1.9,0,3.2-0.8,3.9-2.3c0.4-0.8,0.5-1.9,0.5-3.3
			V32.3h5.6v21.3h-5.4v-3c-0.1,0.1-0.2,0.3-0.4,0.6c-0.2,0.3-0.5,0.6-0.7,0.9c-0.9,0.8-1.7,1.3-2.5,1.6s-1.8,0.4-2.9,0.4
			c-3.1,0-5.3-1.1-6.3-3.4c-0.6-1.2-0.9-3.1-0.9-5.5V32.3H49.3z"/>
		<path class="st1" d="M81,39.9c-0.1-0.8-0.4-1.5-0.8-2.1c-0.6-0.9-1.6-1.3-2.9-1.3c-1.9,0-3.2,0.9-3.9,2.8c-0.4,1-0.5,2.3-0.5,3.9
			c0,1.6,0.2,2.8,0.5,3.8c0.7,1.8,1.9,2.7,3.8,2.7c1.3,0,2.2-0.4,2.8-1.1s0.9-1.6,1-2.7h5.7c-0.1,1.7-0.7,3.3-1.8,4.8
			c-1.7,2.4-4.3,3.7-7.8,3.7c-3.4,0-6-1-7.6-3S67,46.6,67,43.4c0-3.7,0.9-6.5,2.7-8.5c1.8-2,4.2-3,7.4-3c2.7,0,4.9,0.6,6.6,1.8
			c1.7,1.2,2.7,3.3,3,6.3H81z"/>
		<path class="st1" d="M90.4,24.9h5.5v15.5l7-8h6.9l-7.6,7.9l7.9,13.3h-6.8l-5.2-9.1l-2.3,2.4v6.7h-5.5V24.9z"/>
		<path class="st1" d="M117,46.8c0.1,1,0.4,1.7,0.8,2.1c0.7,0.7,2,1.1,3.8,1.1c1.1,0,2-0.2,2.6-0.5c0.6-0.3,1-0.8,1-1.5
			c0-0.6-0.3-1.1-0.8-1.4c-0.5-0.3-2.5-0.9-5.8-1.7c-2.4-0.6-4.1-1.3-5.1-2.2c-1-0.9-1.5-2.2-1.5-3.8c0-2,0.8-3.7,2.3-5.1
			c1.5-1.4,3.7-2.1,6.5-2.1c2.7,0,4.8,0.5,6.5,1.6c1.7,1.1,2.6,2.9,2.9,5.5h-5.6c-0.1-0.7-0.3-1.3-0.6-1.7c-0.6-0.8-1.7-1.1-3.1-1.1
			c-1.2,0-2.1,0.2-2.6,0.6c-0.5,0.4-0.8,0.8-0.8,1.3c0,0.6,0.3,1.1,0.8,1.4c0.5,0.3,2.5,0.8,5.8,1.5c2.2,0.5,3.9,1.3,5,2.4
			c1.1,1.1,1.6,2.4,1.6,4c0,2.1-0.8,3.8-2.4,5.2c-1.6,1.3-4,2-7.3,2c-3.4,0-5.8-0.7-7.4-2.1c-1.6-1.4-2.4-3.2-2.4-5.4H117z"/>
		<path class="st1" d="M161.5,32.4c0.9,0.4,1.7,1,2.5,1.9c0.6,0.7,1,1.7,1.2,2.7c0.1,0.7,0.2,1.8,0.2,3.1l0,13.4h-5.7V40
			c0-0.8-0.1-1.5-0.4-2c-0.5-1-1.4-1.5-2.7-1.5c-1.5,0-2.6,0.6-3.2,1.9c-0.3,0.7-0.4,1.5-0.4,2.4v12.7h-5.6V40.9
			c0-1.3-0.1-2.2-0.4-2.8c-0.5-1-1.4-1.5-2.8-1.5c-1.6,0-2.7,0.5-3.2,1.5c-0.3,0.6-0.4,1.5-0.4,2.6v12.8h-5.6V32.3h5.4v3.1
			c0.7-1.1,1.3-1.9,2-2.4c1.1-0.8,2.5-1.2,4.2-1.2c1.6,0,2.9,0.4,3.9,1.1c0.8,0.7,1.4,1.5,1.8,2.6c0.7-1.2,1.6-2.2,2.7-2.8
			c1.1-0.6,2.4-0.9,3.8-0.9C159.7,31.8,160.6,32,161.5,32.4z"/>
		<path class="st1" d="M179,40.6c1-0.1,1.8-0.3,2.2-0.5c0.8-0.3,1.2-0.9,1.2-1.6c0-0.9-0.3-1.5-0.9-1.8s-1.5-0.5-2.7-0.5
			c-1.3,0-2.3,0.3-2.8,1c-0.4,0.5-0.7,1.1-0.8,2h-5.4c0.1-1.9,0.6-3.4,1.6-4.6c1.5-1.9,4-2.8,7.6-2.8c2.3,0,4.4,0.5,6.2,1.4
			c1.8,0.9,2.7,2.7,2.7,5.2v9.8c0,0.7,0,1.5,0,2.5c0,0.7,0.1,1.2,0.3,1.5c0.2,0.3,0.5,0.5,0.8,0.6v0.8h-6.1
			c-0.2-0.4-0.3-0.8-0.4-1.2c-0.1-0.4-0.1-0.8-0.2-1.3c-0.8,0.8-1.7,1.5-2.7,2.1c-1.2,0.7-2.6,1-4.1,1c-1.9,0-3.5-0.6-4.8-1.7
			c-1.3-1.1-1.9-2.7-1.9-4.7c0-2.6,1-4.5,3-5.7c1.1-0.6,2.8-1.1,4.9-1.4L179,40.6z M182.4,43.2c-0.4,0.2-0.7,0.4-1.1,0.5
			c-0.4,0.1-0.9,0.3-1.5,0.4l-1.3,0.2c-1.2,0.2-2,0.5-2.6,0.8c-0.9,0.5-1.3,1.3-1.3,2.4c0,1,0.3,1.6,0.8,2.1s1.2,0.6,2,0.6
			c1.2,0,2.3-0.4,3.4-1.1c1-0.7,1.6-2,1.6-3.8V43.2z"/>
		<path class="st1" d="M209.9,33.5c1.4,1.2,2.1,3.1,2.1,5.7v14.3h-5.7V40.6c0-1.1-0.1-2-0.4-2.6c-0.5-1.1-1.6-1.6-3.1-1.6
			c-1.9,0-3.2,0.8-3.9,2.4c-0.4,0.8-0.5,1.9-0.5,3.2v11.5h-5.6V32.3h5.4v3.1c0.7-1.1,1.4-1.9,2-2.4c1.1-0.9,2.6-1.3,4.3-1.3
			C206.8,31.8,208.6,32.4,209.9,33.5z"/>
		<path class="st1" d="M234.4,33.5c1.4,1.2,2.1,3.1,2.1,5.7v14.3h-5.7V40.6c0-1.1-0.1-2-0.4-2.6c-0.5-1.1-1.6-1.6-3.1-1.6
			c-1.9,0-3.2,0.8-3.9,2.4c-0.4,0.8-0.5,1.9-0.5,3.2v11.5h-5.6V32.3h5.4v3.1c0.7-1.1,1.4-1.9,2-2.4c1.1-0.9,2.6-1.3,4.3-1.3
			C231.2,31.8,233,32.4,234.4,33.5z"/>
	</g>
</g>
</svg>
